<?xml version="1.0" encoding="utf-8"?>
<svg viewBox="298.926 647.686 1092.993 1292.396" width="1092.993" height="1292.396" xmlns="http://www.w3.org/2000/svg">
  <g transform="matrix(0.1, 0, 0, -0.1, -124.081459, 2120.439697)" fill="#000000" stroke="none">
    <path d="M5720 14724 c-46 -9 -124 -37 -155 -56 -42 -25 -74 -23 -141 13 -80 42 -133 42 -220 -1 -74 -36 -119 -88 -129 -150 -6 -37 -8 -39 -33 -28 -48 18 -154 14 -191 -7 -63 -37 -75 -65 -81 -178 l-5 -101 -33 -7 c-44 -9 -75 -40 -104 -102 -21 -48 -23 -65 -22 -217 0 -91 3 -188 7 -217 l8 -52 -38 -20 c-67 -34 -255 -194 -305 -259 -47 -62 -61 -108 -35 -118 7 -2 55 -6 107 -8 92 -3 298 -19 409 -32 l53 -6 -5 -36 c-3 -21 -13 -68 -21 -107 -21 -95 -30 -295 -17 -379 21 -141 121 -291 226 -337 134 -59 226 -21 329 135 69 104 118 203 196 399 85 214 179 358 308 473 117 104 190 148 312 189 202 69 332 75 503 25 86 -26 117 -40 179 -84 36 -25 45 -35 36 -44 -7 -7 -17 -12 -24 -12 -6 0 -17 -6 -24 -14 -6 -8 -18 -12 -27 -9 -11 4 -14 2 -11 -8 3 -8 11 -13 17 -11 36 8 52 -185 26 -338 -9 -58 -26 -136 -37 -174 -34 -116 -8 -137 123 -97 99 30 182 35 274 16 183 -38 266 -81 391 -202 93 -90 131 -152 173 -281 79 -241 76 -461 -9 -706 -26 -76 -29 -93 -20 -117 13 -31 29 -38 160 -73 301 -81 383 -138 596 -418 38 -51 67 -66 89 -48 25 21 17 51 -40 155 -30 55 -87 165 -126 245 -39 80 -91 184 -115 232 -25 48 -56 117 -70 153 -13 37 -35 87 -48 113 -13 26 -45 106 -71 177 -91 249 -230 528 -368 745 -190 295 -352 471 -551 595 -89 55 -191 95 -243 95 -29 0 -34 3 -25 12 21 21 13 73 -18 119 -42 65 -157 172 -215 202 -28 14 -97 59 -155 101 -58 42 -160 104 -227 138 -147 73 -150 78 -76 185 105 152 126 186 144 234 11 27 19 68 19 92 0 51 -30 119 -61 141 -35 24 -118 21 -187 -8 -99 -41 -112 -41 -168 -2 -99 71 -163 93 -234 80z"/>
    <path d="M6230 13415 c-19 -7 -44 -14 -55 -14 -22 -1 -106 -42 -175 -86 -67 -42 -228 -209 -284 -295 -84 -127 -93 -142 -141 -235 -148 -288 -229 -579 -204 -735 20 -132 82 -209 198 -248 220 -74 492 46 704 311 64 79 58 85 -116 130 -168 44 -178 43 -216 -31 -46 -89 -138 -162 -205 -162 -55 0 -102 74 -91 145 12 77 73 252 125 360 105 219 115 237 202 344 60 74 146 118 197 100 36 -13 61 -60 61 -114 0 -18 -11 -72 -25 -121 -14 -48 -25 -97 -23 -108 4 -28 42 -36 209 -43 l145 -6 22 27 c24 31 71 169 103 301 19 82 20 99 10 195 -11 96 -15 110 -49 159 -51 74 -99 111 -169 127 -73 17 -177 17 -223 -1z"/>
    <path d="M6860 12643 c-122 -21 -207 -83 -258 -190 -74 -157 -48 -330 77 -514 116 -172 387 -358 573 -394 174 -33 315 33 371 174 48 119 37 433 -21 582 -35 90 -61 129 -128 191 -76 71 -190 115 -343 132 -29 4 -58 9 -62 12 -12 7 -177 13 -209 7z m311 -280 c113 -58 149 -189 95 -350 -44 -132 -112 -182 -208 -154 -58 18 -143 104 -158 161 -34 127 48 331 143 359 52 15 70 12 128 -16z"/>
    <path d="M6414 11878 c-16 -12 -65 -54 -109 -94 -93 -83 -195 -151 -280 -187 -84 -35 -267 -61 -378 -53 -162 11 -334 110 -388 224 -38 81 -80 112 -107 80 -13 -17 -68 -214 -87 -313 -69 -372 -67 -355 -72 -660 -5 -298 -5 -301 47 -890 41 -460 44 -477 63 -489 28 -18 49 4 88 95 134 306 162 367 202 432 60 95 154 206 203 238 84 55 167 64 249 25 98 -45 149 -109 210 -258 37 -92 58 -111 115 -102 19 3 82 -1 140 -9 172 -23 305 2 407 77 115 84 169 175 204 342 32 156 87 329 144 459 61 136 150 299 201 364 35 46 44 90 21 109 -7 7 -74 31 -149 56 -160 52 -194 69 -313 152 -141 98 -237 211 -284 334 -35 92 -71 111 -127 68z"/>
    <path d="M14685 11336 c-32 -14 -73 -57 -142 -149 -33 -43 -74 -77 -180 -147 -230 -152 -342 -197 -568 -226 -260 -33 -285 -44 -540 -229 -237 -173 -326 -224 -457 -265 -36 -11 -94 -33 -129 -49 -75 -33 -189 -61 -253 -61 -25 0 -48 -4 -51 -10 -3 -5 -32 -11 -63 -11 -93 -2 -117 -10 -120 -41 -4 -37 23 -52 128 -73 47 -9 139 -30 205 -47 66 -16 174 -42 240 -58 475 -112 611 -162 719 -265 81 -77 91 -102 89 -215 -5 -254 -85 -533 -292 -1020 -50 -118 -112 -264 -138 -325 -174 -414 -280 -618 -444 -858 -60 -87 -109 -169 -109 -181 0 -13 9 -31 20 -41 22 -20 30 -18 115 33 17 9 62 35 100 56 200 111 382 240 539 380 161 145 360 387 466 570 50 85 127 159 205 196 121 58 308 265 402 446 75 144 104 317 71 426 -11 39 -11 40 23 65 79 60 259 252 312 333 211 326 326 669 327 977 0 191 -66 492 -135 609 -34 58 -128 149 -180 174 -47 23 -116 25 -160 6z"/>
    <path d="M7540 11303 c-8 -2 -48 -70 -88 -151 -39 -81 -99 -196 -132 -257 -33 -60 -64 -119 -69 -130 -12 -26 -128 -235 -141 -255 -24 -37 -60 -111 -60 -124 0 -9 15 -19 38 -24 20 -5 89 -21 153 -37 65 -15 125 -24 137 -21 15 5 47 59 112 191 51 102 97 185 103 185 7 0 28 -5 48 -10 46 -13 47 -21 40 -253 -3 -98 -3 -187 1 -197 4 -11 20 -22 35 -26 15 -3 104 -27 196 -54 138 -39 170 -45 174 -33 5 13 -5 146 -27 363 -15 148 -14 159 18 166 94 24 171 81 202 151 26 60 27 163 1 218 -27 59 -95 123 -164 156 -71 33 -542 149 -577 142z m323 -249 c91 -22 127 -53 127 -106 0 -30 -7 -46 -29 -69 -25 -24 -37 -29 -81 -29 -59 0 -175 27 -189 44 -6 8 0 36 20 86 35 87 46 102 68 96 9 -3 47 -13 84 -22z"/>
    <path d="M8762 10858 c-13 -13 -16 -57 -4 -73 4 -6 25 -23 47 -40 22 -16 81 -63 130 -105 50 -41 126 -100 170 -131 99 -70 118 -90 148 -159 57 -131 73 -264 57 -490 -17 -256 -55 -404 -160 -625 -46 -97 -179 -245 -256 -287 -114 -60 -249 -43 -448 58 -91 46 -139 64 -160 63 -17 -2 -38 1 -45 5 -19 12 -43 -22 -35 -48 11 -35 127 -198 175 -246 26 -26 84 -66 130 -90 46 -24 129 -70 184 -103 55 -33 165 -95 245 -139 247 -136 353 -224 419 -348 60 -112 74 -242 45 -410 -20 -119 -16 -158 17 -183 34 -25 58 -17 106 34 21 22 53 49 70 60 45 28 201 59 299 59 91 0 126 -9 339 -87 87 -32 201 -65 270 -78 66 -13 152 -31 190 -41 70 -17 238 -28 390 -25 162 2 395 50 762 156 182 53 343 78 462 73 78 -3 91 -7 141 -38 42 -27 65 -35 97 -34 91 2 97 54 21 169 -86 127 -180 189 -333 219 -116 22 -563 55 -910 67 -400 13 -599 45 -770 124 -139 63 -148 69 -198 120 -227 232 -369 462 -470 760 -57 168 -63 199 -87 450 -34 377 -61 509 -136 685 -62 145 -102 213 -188 323 -81 102 -170 180 -250 221 -76 38 -386 146 -421 146 -17 0 -36 -5 -43 -12z"/>
    <path d="M8535 10661 c-3 -6 -19 -59 -35 -118 -17 -59 -39 -138 -50 -174 -11 -36 -20 -76 -20 -89 0 -13 -9 -53 -19 -89 -38 -129 -52 -182 -82 -303 -16 -68 -36 -145 -44 -173 -7 -27 -19 -72 -25 -100 -17 -78 -48 -216 -59 -260 -18 -69 -3 -83 104 -104 28 -5 109 -23 182 -40 195 -45 258 -37 335 41 100 102 148 360 89 476 -29 56 -27 68 14 88 42 20 94 96 124 182 29 86 29 229 1 306 -23 60 -74 117 -140 156 -23 14 -64 40 -91 58 -99 66 -248 152 -263 152 -8 0 -17 -4 -21 -9z m229 -425 c69 -29 92 -94 63 -179 -20 -56 -40 -67 -95 -51 -59 18 -72 30 -72 68 0 28 32 145 46 167 7 12 19 11 58 -5z m-104 -504 c46 -23 62 -55 57 -120 -7 -96 -70 -142 -145 -105 -32 15 -37 23 -40 56 -3 35 19 127 40 170 11 21 43 21 88 -1z"/>
    <path d="M9860 10418 c0 -18 9 -109 19 -203 19 -166 20 -170 50 -197 27 -24 116 -58 199 -74 63 -13 77 -44 90 -206 30 -351 42 -569 43 -803 1 -137 4 -263 8 -280 6 -28 11 -31 61 -38 30 -5 108 -19 173 -33 66 -13 123 -21 128 -18 13 8 11 106 -10 460 -11 175 -23 409 -27 520 -6 180 -5 202 11 217 22 23 34 22 89 -8 62 -33 123 -43 132 -22 9 25 -25 258 -44 297 -20 41 -64 73 -135 95 -29 10 -68 27 -87 40 -19 12 -53 28 -75 35 -22 7 -76 30 -119 52 -44 21 -87 38 -95 38 -9 0 -41 14 -71 31 -30 17 -88 42 -128 55 -40 13 -95 35 -122 49 -69 35 -90 33 -90 -7z"/>
    <path d="M5670 10030 c-64 -14 -87 -28 -148 -96 -55 -61 -138 -200 -156 -264 -5 -14 -18 -52 -31 -85 -26 -66 -53 -159 -90 -305 -81 -325 -97 -650 -43 -860 19 -76 78 -190 118 -230 61 -61 126 -94 187 -96 29 -1 56 2 59 7 3 5 14 9 26 9 12 0 46 26 83 65 67 69 127 178 160 290 10 33 22 70 26 83 15 39 11 98 -8 114 -10 9 -52 34 -93 58 -41 23 -82 48 -91 56 -8 8 -18 14 -22 14 -11 0 -29 -42 -43 -103 -23 -95 -52 -155 -87 -172 -40 -20 -50 -19 -75 8 -47 50 -66 211 -42 362 5 33 16 105 25 160 16 101 81 377 96 405 4 8 21 45 37 81 22 48 39 72 65 88 46 28 69 18 93 -44 15 -40 16 -67 10 -205 l-7 -160 48 -21 c75 -32 175 -51 191 -35 31 31 48 444 23 576 -28 144 -90 247 -174 286 -54 25 -77 27 -137 14z"/>
    <path d="M11302 10031 c-130 -6 -134 -7 -157 -33 -14 -16 -27 -48 -31 -75 -4 -27 -11 -59 -16 -73 -5 -14 -16 -54 -23 -90 -16 -75 -38 -167 -53 -225 -5 -22 -20 -85 -32 -140 -12 -55 -28 -122 -35 -150 -8 -27 -16 -66 -18 -85 -3 -19 -12 -66 -21 -105 -9 -38 -21 -90 -26 -115 -5 -25 -18 -85 -29 -135 -11 -49 -24 -115 -30 -145 -6 -30 -20 -97 -32 -149 -11 -52 -17 -101 -14 -109 4 -12 21 -14 98 -8 179 12 266 23 281 35 8 7 17 31 21 54 3 23 12 69 20 102 13 61 43 197 72 335 8 41 19 82 23 90 6 12 34 16 144 18 133 3 137 2 145 -20 4 -12 4 -36 0 -52 -16 -58 -72 -351 -82 -427 -16 -117 -26 -111 172 -107 93 2 172 6 176 10 6 6 20 64 50 213 14 69 26 125 66 315 11 52 29 138 40 190 11 52 29 137 40 188 10 50 28 134 38 185 40 191 63 294 79 350 8 31 16 76 16 99 1 63 -16 68 -209 65 l-160 -2 -8 -40 c-5 -22 -15 -65 -22 -95 -34 -138 -48 -199 -55 -245 -5 -27 -15 -77 -24 -110 -9 -32 -16 -67 -16 -77 0 -29 -38 -40 -152 -46 -78 -3 -112 -1 -123 8 -18 15 -20 92 -3 123 6 12 17 54 24 92 7 39 17 89 23 113 27 107 33 130 43 180 5 29 7 64 4 77 -5 21 -12 25 -39 23 -17 -1 -92 -4 -165 -7z"/>
    <path d="M12317 9824 c-7 -12 -33 -156 -53 -289 -40 -278 -55 -372 -64 -400 -5 -16 -12 -61 -15 -100 -4 -38 -13 -93 -20 -120 -8 -28 -17 -78 -20 -110 -4 -33 -15 -100 -25 -150 -11 -49 -22 -110 -25 -135 -3 -25 -16 -96 -28 -158 -17 -92 -19 -115 -8 -121 7 -5 55 -11 107 -15 51 -4 108 -11 126 -17 18 -5 87 -14 153 -20 66 -6 145 -16 175 -24 30 -7 82 -16 115 -20 33 -3 108 -15 167 -26 59 -11 112 -18 117 -14 5 3 15 31 21 63 7 31 22 96 35 143 13 48 20 91 16 98 -9 14 -166 61 -206 61 -17 0 -55 7 -83 15 -29 9 -98 24 -155 33 -121 20 -118 15 -92 164 16 95 37 134 64 122 9 -3 59 -12 112 -20 53 -7 110 -19 125 -25 54 -20 167 -38 185 -28 20 10 33 63 51 198 12 92 12 94 -10 112 -13 10 -44 21 -70 24 -26 4 -96 19 -157 35 -60 15 -129 31 -153 35 -25 4 -46 14 -49 23 -4 8 -2 54 4 100 14 110 21 116 111 91 37 -11 97 -26 135 -34 37 -8 121 -31 188 -50 144 -42 157 -43 169 -11 14 39 51 255 48 283 -3 23 -15 29 -134 68 -73 24 -147 46 -165 50 -19 3 -81 21 -139 40 -58 18 -132 39 -165 45 -33 7 -114 27 -180 46 -133 39 -200 51 -208 38z"/>
    <path d="M6282 9748 c-11 -18 -23 -46 -27 -63 -4 -16 -15 -52 -25 -80 -11 -27 -26 -75 -34 -105 -8 -30 -24 -86 -36 -125 -32 -109 -81 -295 -91 -345 -4 -25 -15 -70 -23 -100 -8 -30 -24 -102 -35 -160 -11 -58 -25 -130 -31 -160 -22 -112 -41 -217 -55 -305 -7 -49 -23 -143 -34 -208 -12 -65 -21 -127 -21 -137 0 -22 62 -61 125 -80 22 -6 64 -21 93 -33 38 -15 55 -18 63 -10 6 6 15 44 19 85 11 103 33 243 81 511 18 97 27 127 39 127 8 0 55 -17 104 -37 66 -28 91 -44 98 -62 6 -17 1 -73 -16 -185 -56 -353 -75 -533 -60 -572 10 -28 17 -33 153 -99 133 -64 151 -60 151 35 0 19 7 82 15 140 9 58 25 166 36 240 37 252 82 492 125 670 9 36 24 101 34 145 9 44 26 107 37 140 11 34 24 81 28 105 4 25 18 72 30 105 12 33 35 96 49 140 15 44 36 106 48 138 31 89 24 101 -80 132 -48 15 -99 31 -113 36 -14 5 -45 11 -69 12 l-45 2 -28 -80 c-53 -153 -98 -289 -117 -359 -68 -253 -61 -236 -94 -236 -26 0 -133 33 -167 51 -20 10 -21 17 -16 75 4 35 13 76 20 91 8 15 18 44 21 63 9 45 62 220 86 285 11 28 26 76 34 109 20 75 10 96 -43 96 -21 0 -57 6 -79 14 -22 8 -60 18 -85 21 -42 7 -45 5 -65 -27z"/>
    <path d="M7202 9227 c-48 -129 -169 -690 -198 -922 -8 -60 -21 -144 -28 -185 -8 -41 -18 -102 -21 -135 -3 -33 -15 -134 -25 -225 -29 -252 -54 -546 -47 -562 3 -8 38 -37 79 -63 40 -26 116 -80 169 -119 53 -39 125 -87 160 -106 35 -19 90 -57 123 -83 34 -27 101 -71 151 -99 49 -29 108 -66 130 -83 69 -55 136 -90 145 -75 4 7 11 48 15 93 3 44 15 130 26 191 26 154 26 160 -17 193 -20 15 -54 43 -76 61 -23 18 -73 51 -112 74 -39 23 -91 58 -116 78 -38 31 -142 101 -217 146 -15 10 -18 23 -16 97 3 151 30 297 54 297 4 0 20 -10 36 -23 15 -13 69 -47 118 -76 50 -29 104 -65 120 -80 33 -31 159 -111 174 -111 4 0 14 6 20 14 17 20 73 365 66 403 -6 36 -36 62 -130 115 -57 33 -124 78 -190 131 -16 13 -54 37 -82 53 -32 17 -56 39 -61 53 -8 25 10 169 29 228 18 57 29 57 110 -2 41 -30 92 -64 114 -76 36 -19 65 -39 215 -146 72 -51 160 -103 175 -103 25 0 27 5 111 322 29 111 26 126 -34 157 -34 17 -60 35 -187 129 -22 17 -65 44 -95 62 -54 31 -92 58 -188 130 -26 20 -78 53 -116 74 -37 21 -97 59 -133 85 -110 78 -207 141 -220 141 -6 0 -21 -24 -31 -53z"/>
    <path d="M8355 8548 c-3 -7 -14 -44 -26 -83 -11 -38 -29 -99 -40 -135 -11 -36 -35 -132 -54 -215 -19 -82 -50 -215 -69 -295 -19 -80 -46 -215 -61 -300 -15 -85 -35 -193 -45 -240 -10 -47 -28 -155 -40 -240 -12 -85 -30 -204 -41 -264 -28 -159 -23 -246 13 -246 6 0 25 -10 42 -23 39 -29 123 -72 157 -80 21 -5 30 -2 42 16 14 22 48 126 68 212 10 42 20 74 89 293 47 149 45 146 150 163 121 19 115 15 148 87 17 37 33 78 37 92 4 14 18 43 30 65 28 47 51 122 42 132 -4 3 -56 5 -116 4 -92 -2 -109 0 -115 14 -6 17 21 151 52 250 17 56 20 60 48 59 16 -1 54 -9 84 -18 46 -13 73 -14 163 -6 59 5 112 12 117 15 8 5 39 56 79 130 9 17 29 51 45 78 30 51 29 82 -3 72 -22 -7 -157 35 -199 62 -15 10 -52 36 -83 59 -30 23 -80 57 -110 74 -30 17 -72 49 -94 70 -22 21 -71 58 -110 83 -38 24 -81 57 -95 72 -25 27 -70 55 -90 55 -6 0 -13 -6 -15 -12z"/>
    <path d="M5543 7854 c-11 -30 5 -129 32 -197 54 -133 142 -239 310 -372 156 -124 250 -240 334 -416 58 -123 109 -176 234 -247 67 -38 362 -142 402 -142 22 0 205 -60 246 -81 45 -22 118 -96 175 -175 52 -73 97 -169 160 -341 68 -188 88 -235 165 -373 97 -176 126 -218 189 -268 30 -24 135 -121 233 -216 98 -94 196 -183 218 -198 57 -38 182 -88 221 -88 65 0 69 10 72 160 2 115 6 145 28 205 42 116 76 174 143 240 51 50 79 69 137 91 88 33 148 90 195 185 34 70 104 349 124 495 20 149 -3 320 -55 409 -38 63 -76 85 -152 85 -80 0 -128 -25 -284 -151 -158 -128 -207 -160 -314 -204 -122 -51 -248 -79 -316 -71 -138 16 -324 97 -450 195 -25 19 -112 101 -195 181 -242 236 -341 312 -529 410 -50 26 -145 75 -211 110 -66 34 -230 119 -365 187 -207 106 -257 136 -319 192 -146 129 -228 217 -279 296 -64 99 -71 108 -88 101 -7 -3 -16 -1 -19 4 -10 15 -35 12 -42 -6z"/>
    <path d="M9850 7509 c-58 -5 -110 -11 -116 -13 -11 -4 -48 -136 -59 -211 -3 -22 -13 -62 -20 -90 -8 -27 -21 -84 -29 -125 -18 -92 -40 -196 -65 -315 -45 -214 -83 -399 -102 -500 -15 -80 -48 -253 -64 -339 -20 -107 -20 -122 8 -130 12 -3 92 -9 179 -12 l156 -7 11 39 c6 21 18 77 27 124 8 47 24 126 35 175 10 50 26 130 34 178 8 49 17 93 20 98 4 5 15 62 26 126 11 64 22 121 25 125 3 5 16 66 29 136 35 188 53 277 75 377 10 50 27 128 35 175 9 47 21 105 26 130 5 25 7 50 4 57 -5 15 -70 15 -235 2z"/>
    <path d="M12015 7440 c-146 -30 -294 -161 -417 -370 -53 -88 -146 -281 -154 -319 -4 -14 -12 -35 -19 -46 -16 -27 -51 -120 -85 -230 -16 -49 -35 -109 -44 -133 -33 -91 -67 -303 -62 -382 6 -91 13 -116 40 -153 41 -56 73 -67 161 -58 85 9 138 31 245 102 70 47 263 246 314 324 21 33 47 71 56 85 44 65 92 172 82 182 -7 7 -54 8 -142 3 l-131 -7 -24 -33 c-14 -17 -30 -47 -37 -66 -37 -107 -157 -239 -217 -239 -93 0 -76 160 54 520 102 281 155 383 230 444 51 42 83 45 115 11 22 -23 23 -29 16 -112 -3 -49 -9 -103 -13 -122 l-6 -34 58 8 c67 8 152 28 212 51 54 20 62 44 70 215 5 113 4 132 -16 192 -28 82 -58 120 -122 152 -50 26 -91 29 -164 15z"/>
    <path d="M11063 7058 c-15 -19 -53 -108 -53 -124 0 -8 -11 -45 -23 -82 -13 -37 -29 -98 -36 -137 -7 -38 -17 -82 -23 -97 -17 -45 -41 -20 -103 109 -159 327 -144 303 -186 303 -21 0 -96 -5 -166 -11 -128 -11 -163 -23 -163 -55 0 -11 -36 -105 -78 -204 -6 -14 -32 -79 -57 -145 -26 -66 -53 -135 -61 -152 -8 -18 -26 -63 -40 -100 -33 -89 -92 -240 -110 -281 -28 -64 -25 -66 84 -58 181 14 207 25 235 101 9 22 27 69 40 105 14 36 32 85 41 110 9 25 20 54 26 65 19 40 57 151 70 203 6 28 16 52 20 52 9 0 40 -73 40 -93 0 -13 90 -225 110 -259 5 -10 10 -22 10 -28 0 -5 11 -33 24 -62 13 -29 29 -67 36 -85 7 -18 20 -35 30 -38 9 -3 80 -3 156 0 114 4 141 8 154 23 26 27 47 87 171 477 18 55 42 132 55 170 52 162 75 248 72 273 l-3 27 -131 3 c-97 2 -134 -1 -141 -10z"/>
    <path d="M10855 5884 c-110 -16 -169 -28 -235 -50 -70 -24 -82 -26 -195 -19 -370 22 -450 4 -552 -125 -83 -105 -145 -170 -174 -186 -42 -21 -128 -47 -318 -94 -252 -62 -389 -128 -490 -235 -57 -62 -123 -174 -136 -232 -20 -97 11 -276 69 -392 25 -50 47 -191 41 -256 -3 -22 -10 -94 -16 -160 -18 -203 -34 -263 -119 -445 -172 -369 -161 -353 -347 -557 -183 -201 -282 -242 -653 -273 -178 -16 -425 -55 -474 -75 -72 -30 -150 -87 -219 -159 -76 -79 -86 -113 -32 -108 150 13 243 13 356 -3 68 -9 125 -18 127 -19 1 -2 -26 -9 -60 -15 -55 -11 -130 -42 -393 -167 -61 -28 -195 -115 -213 -137 -17 -20 -7 -57 15 -57 8 0 41 7 72 15 103 26 372 56 556 61 118 3 173 1 160 -5 -11 -5 -57 -25 -101 -44 -115 -48 -333 -180 -400 -242 -43 -40 -55 -58 -52 -76 5 -38 36 -34 148 16 185 82 340 124 705 195 104 20 484 72 590 80 61 4 236 25 390 45 241 31 305 36 461 34 100 -1 187 2 193 5 6 4 9 21 7 39 -3 18 -5 35 -5 38 -1 4 -11 9 -23 12 -231 51 -364 108 -464 199 -101 93 -96 119 16 82 67 -23 81 -24 130 -15 80 16 127 51 141 105 11 43 13 45 92 81 185 85 393 157 500 175 134 22 497 38 862 38 376 0 381 0 451 -24 113 -38 199 -27 199 26 0 21 -7 26 -50 36 -81 19 -355 113 -415 143 -132 67 -211 113 -220 131 -5 10 -10 52 -10 93 0 129 -25 240 -82 362 -51 108 -52 112 -51 200 1 88 19 190 87 480 30 126 45 259 46 395 0 129 11 163 72 219 105 98 250 278 276 346 27 68 79 269 74 287 -2 10 -17 25 -33 33 -15 8 -48 46 -72 83 -25 38 -59 79 -77 92 -33 23 -93 33 -155 24z m-724 -1221 c50 -48 100 -93 112 -100 20 -10 22 -20 24 -100 3 -201 -30 -574 -63 -698 -34 -132 -123 -255 -211 -293 -53 -22 -50 -22 -358 -57 -259 -30 -367 -54 -453 -102 l-63 -34 7 28 c3 15 22 64 41 108 107 245 225 599 252 750 8 49 31 270 31 311 0 7 20 15 45 18 128 20 385 134 470 211 28 24 56 44 63 45 8 0 54 -39 103 -87z m-768 -1601 c-12 -9 -48 -38 -81 -64 -57 -45 -60 -46 -76 -29 -9 9 -16 22 -16 27 0 13 57 41 130 65 69 22 70 22 43 1z m177 -69 c-19 -14 -73 -65 -120 -113 l-86 -87 -32 49 c-18 27 -30 53 -27 59 10 16 85 50 185 85 117 40 124 41 80 7z"/>
  </g>
</svg>